<?xml version="1.0" encoding="UTF-8"?>
<svg id="Layer_2" data-name="Layer 2" xmlns="http://www.w3.org/2000/svg" xmlns:xlink="http://www.w3.org/1999/xlink" viewBox="0 0 141.13 141.13">
  <defs>
    <style>
      .cls-1 {
        fill: none;
        stroke: url(#linear-gradient);
        stroke-miterlimit: 10;
        stroke-width: 15px;
      }
    </style>
    <linearGradient id="linear-gradient" x1="537.81" y1="-313.99" x2="670.63" y2="-237.31" gradientTransform="translate(-551.6 -161.77) rotate(45)" gradientUnits="userSpaceOnUse">
      <stop offset="0" stop-color="#3367b2"/>
      <stop offset="1" stop-color="#232162"/>
    </linearGradient>
  </defs>
  <g id="Layer_1-2" data-name="Layer 1">
    <path class="cls-1" d="M124.3,84.01c-5.96-5.96-20.06-10.1-32.78-12.75,13.36-2.26,28.47-6.06,34.61-12.2,12.05-12.05,8.63-28.17-3.43-40.22s-26.64-14.06-38.69-2c-5.96,5.96-10.1,20.06-12.75,32.78-2.26-13.36-6.06-28.47-12.2-34.61-12.05-12.05-28.17-8.63-40.22,3.43-12.05,12.05-14.06,26.64-2,38.69,5.96,5.96,20.06,10.1,32.78,12.75-13.36,2.26-28.47,6.06-34.61,12.2-12.05,12.05-8.63,28.17,3.43,40.22,12.05,12.05,26.64,14.06,38.69,2,5.96-5.96,10.1-20.06,12.75-32.78,2.26,13.36,6.06,28.47,12.2,34.61,12.05,12.05,28.17,8.63,40.22-3.43s14.06-26.64,2-38.69ZM68.23,70.45c.93-.61,1.76-1.36,2.46-2.22.61.93,1.36,1.76,2.22,2.46-.93.61-1.76,1.36-2.46,2.22-.61-.93-1.36-1.76-2.22-2.46Z"/>
  </g>
</svg>