<svg xmlns="http://www.w3.org/2000/svg" width="160" height="160" viewBox="0 0 160 160" fill="none">
  <g stroke="#E2E8F0" stroke-width="1.35" stroke-linecap="round" stroke-linejoin="round" opacity="0.24">
    <path d="M20 26h20a8 8 0 0 1 8 8v8a8 8 0 0 1-8 8h-8l-8 7v-7h-4a8 8 0 0 1-8-8v-8a8 8 0 0 1 8-8Z"/>
    <path d="M104 20v24a6 6 0 1 1-4-5.7V26l16-4v20a6 6 0 1 1-4-5.7V20l-8 2Z"/>
    <path d="M42 104l3 6 7 1-5 5 1 7-6-3-6 3 1-7-5-5 7-1 3-6Z"/>
    <path d="M96 94c-5-7-16-3-16 6s11 13 16 19c5-6 16-11 16-19s-11-13-16-6Z"/>
    <path d="M126 98l-9 14h8l-4 14 14-19h-9l4-9Z"/>
    <path d="M64 72h8M68 68v8"/>
  </g>
</svg>
