<svg xmlns="http://www.w3.org/2000/svg" width="420" height="420" viewBox="0 0 420 420" fill="none">
  <g stroke="#E2E8F0" stroke-width="1.4" stroke-linecap="round" stroke-linejoin="round" opacity="0.25">
    <g transform="translate(38 40) rotate(-8)">
      <path d="M4 10h24c5 0 8 3 8 8v8c0 5-3 8-8 8H17l-9 8v-8H4c-5 0-8-3-8-8v-8c0-5 3-8 8-8Z"/>
    </g>
    <g transform="translate(176 54) rotate(9)">
      <path d="M0 2v22a5.5 5.5 0 1 1-3.8-5.2V6l14-3v20a5.5 5.5 0 1 1-3.8-5.2V2l-6.4 1.6Z"/>
    </g>
    <g transform="translate(286 56) rotate(-6) scale(.92)">
      <path d="M16 31C10 24-2 20-2 10c0-8 9-12 16-5 7-7 16-3 16 5 0 10-12 14-16 21Z"/>
    </g>
    <g transform="translate(344 72) rotate(7)">
      <path d="M8 0 0 13h7l-3 13 12-17h-8l3-9Z"/>
    </g>

    <g transform="translate(96 148) rotate(-12)">
      <path d="M9 0 11.8 5.7 18 6.6 13.5 11l1.1 6.2L9 14.3 3.4 17.2 4.5 11 0 6.6l6.2-.9L9 0Z"/>
    </g>
    <g transform="translate(224 148) rotate(8)">
      <path d="M4 10h24c5 0 8 3 8 8v8c0 5-3 8-8 8H17l-9 8v-8H4c-5 0-8-3-8-8v-8c0-5 3-8 8-8Z"/>
    </g>
    <g transform="translate(334 168) rotate(-9) scale(.95)">
      <path d="M0 2v22a5.5 5.5 0 1 1-3.8-5.2V6l14-3v20a5.5 5.5 0 1 1-3.8-5.2V2l-6.4 1.6Z"/>
    </g>

    <g transform="translate(52 246) rotate(7) scale(1.02)">
      <path d="M16 31C10 24-2 20-2 10c0-8 9-12 16-5 7-7 16-3 16 5 0 10-12 14-16 21Z"/>
    </g>
    <g transform="translate(158 272) rotate(-8)">
      <path d="M8 0 0 13h7l-3 13 12-17h-8l3-9Z"/>
    </g>
    <g transform="translate(258 260) rotate(-11) scale(.95)">
      <path d="M4 10h24c5 0 8 3 8 8v8c0 5-3 8-8 8H17l-9 8v-8H4c-5 0-8-3-8-8v-8c0-5 3-8 8-8Z"/>
    </g>
    <g transform="translate(350 304) rotate(10) scale(.92)">
      <path d="M0 2v22a5.5 5.5 0 1 1-3.8-5.2V6l14-3v20a5.5 5.5 0 1 1-3.8-5.2V2l-6.4 1.6Z"/>
    </g>
    <g transform="translate(196 328) rotate(9)">
      <path d="M9 0 11.8 5.7 18 6.6 13.5 11l1.1 6.2L9 14.3 3.4 17.2 4.5 11 0 6.6l6.2-.9L9 0Z"/>
    </g>

    <g transform="translate(140 102)">
      <path d="M0 4h8M4 0v8"/>
    </g>
    <g transform="translate(290 206)">
      <path d="M0 4h8M4 0v8"/>
    </g>
    <g transform="translate(112 348)">
      <path d="M0 4h8M4 0v8"/>
    </g>
    <circle cx="334" cy="244" r="1.6"/>
    <circle cx="72" cy="346" r="1.5"/>
    <circle cx="240" cy="96" r="1.4"/>
  </g>
</svg>
